<svg width="129" height="40" viewBox="0 0 129 40" fill="none" xmlns="http://www.w3.org/2000/svg">
<path fill-rule="evenodd" clip-rule="evenodd" d="M12.4084 23.0013C12.4084 24.9184 11.3994 26.0786 9.23109 26.0786C7.06194 26.0786 6.05219 24.9688 6.05219 23.0517V17.9573C6.05219 16.0402 7.06194 14.9304 9.23109 14.9304C11.3994 14.9304 12.4084 16.0402 12.4084 17.9573V23.0013ZM9.23109 9.83599C1.96674 9.83599 0 13.9215 0 18.1085V22.8501C0 27.0363 1.96674 31.1226 9.23109 31.1226C16.4946 31.1226 18.4614 27.0363 18.4614 22.8501V18.1085C18.4614 13.9215 16.4946 9.83599 9.23109 9.83599Z" fill="#009EFB"/>
<path fill-rule="evenodd" clip-rule="evenodd" d="M36.116 9.88653C33.2915 9.98735 30.5167 10.6434 27.9443 11.854L27.3394 10.2906H22.8499V30.7195H28.9028V17.2013C30.1638 16.4948 32.2322 15.7379 33.2915 15.7379C34.3509 15.7379 34.7541 16.2924 34.7541 17.2013V30.6691V30.7195H40.8071V16.4444C40.8071 12.4589 39.5965 9.88653 36.116 9.88653Z" fill="#009EFB"/>
<path fill-rule="evenodd" clip-rule="evenodd" d="M55.3344 6.10336C56.1417 6.10336 56.949 6.20419 57.7556 6.35542L58.5117 1.61385C57.0995 1.21058 55.6368 1.05937 54.1742 1.05937C49.231 1.05937 47.2635 3.43013 47.2635 7.61719V10.6937H44.187V15.6369H47.2635V30.6177H53.3173V15.5865H57.4531L57.8564 10.6433H53.2668V8.27251C53.2668 6.9611 53.4181 6.10336 55.3344 6.10336Z" fill="#009EFB"/>
<path fill-rule="evenodd" clip-rule="evenodd" d="M61.5387 30.6689H67.5917V1.05943L61.5387 1.91636V30.6689Z" fill="#009EFB"/>
<path fill-rule="evenodd" clip-rule="evenodd" d="M80.7568 24.7672L76.621 10.2905H70.5176L76.7722 30.7194H78.6893L76.3177 38.9415H81.9674L84.591 30.7194L90.9969 10.2905H84.8935L80.7568 24.7672Z" fill="#009EFB"/>
<path fill-rule="evenodd" clip-rule="evenodd" d="M122.17 12.4084C121.363 13.0141 120.506 13.5182 119.597 13.9719C118.942 12.4084 118.034 10.8953 116.975 9.53353C117.63 9.73516 118.236 9.93679 118.891 10.2392L118.336 10.9962L119.697 11.349L120.254 10.9457C120.91 11.4002 121.565 11.8531 122.17 12.4084ZM126.407 21.3866H121.211C121.161 19.2183 120.758 17.0995 120.052 15.0824C121.111 14.5775 122.12 13.9719 123.028 13.2653C125.046 15.4857 126.256 18.3605 126.407 21.3866ZM122.825 30.9202C121.968 30.164 121.01 29.5087 120.001 28.9534C120.758 26.8851 121.161 24.7672 121.211 22.5476H126.357C126.256 25.6745 124.995 28.651 122.825 30.9202ZM116.975 34.4511C118.034 33.0893 118.891 31.6267 119.547 30.0632C120.405 30.5177 121.211 31.0722 121.968 31.7275C120.556 32.9893 118.841 33.947 116.975 34.4511ZM114.049 34.956V28.5502C115.613 28.6006 117.127 28.9534 118.539 29.5583C117.731 31.4754 116.571 33.2917 115.159 34.8552C114.755 34.9056 114.402 34.9056 114.049 34.956ZM120.102 22.598C120.052 24.6159 119.698 26.5827 118.993 28.4998C117.429 27.8437 115.763 27.4908 114.049 27.39V22.598H120.102ZM114.049 16.545C115.763 16.4946 117.429 16.141 118.993 15.5361C119.648 17.4524 120.001 19.4199 120.052 21.4378H113.999L114.049 16.545ZM114.049 9.02866C114.452 9.02866 114.806 9.07986 115.209 9.12948C116.621 10.6937 117.731 12.4588 118.539 14.4263C117.075 14.9808 115.563 15.2833 114.049 15.3345V9.02866ZM112.839 15.3345C111.275 15.2833 109.761 14.9808 108.349 14.4263C109.157 12.5092 110.316 10.7441 111.679 9.17988C112.082 9.12947 112.435 9.07985 112.839 9.07985V15.3345ZM112.839 21.3866H106.786C106.835 19.3695 107.239 17.402 107.895 15.4857C109.459 16.0906 111.123 16.4442 112.839 16.4946V21.3866ZM112.839 27.39C111.123 27.4404 109.459 27.8437 107.895 28.4998C107.239 26.5827 106.835 24.6159 106.786 22.598H112.839V27.39ZM112.788 34.956V34.9528C112.406 34.9489 112.064 34.9032 111.679 34.8552C110.266 33.2917 109.157 31.5266 108.299 29.5583C109.711 28.9534 111.275 28.6006 112.788 28.5502V34.9528L112.839 34.956H112.788ZM104.919 31.7275C105.676 31.0722 106.483 30.5177 107.34 30.0632C107.996 31.6267 108.904 33.0893 109.914 34.4511C108.047 33.947 106.331 32.9893 104.919 31.7275ZM100.48 22.598H105.625C105.676 24.7672 106.079 26.9355 106.835 29.0038C105.826 29.5583 104.868 30.2144 104.011 30.9706C101.892 28.651 100.631 25.6745 100.48 22.598ZM103.86 13.2653C104.767 13.9719 105.777 14.5775 106.835 15.0824C106.13 17.0995 105.726 19.2687 105.625 21.4378H100.48C100.631 18.3606 101.791 15.4857 103.86 13.2653ZM109.862 9.53353C108.803 10.8953 107.946 12.4084 107.239 13.9719C106.331 13.5182 105.474 13.0141 104.667 12.4084C106.18 11.0466 107.946 10.088 109.862 9.53353ZM126.104 6.40583L125.046 6.1538L122.624 0.352859L121.262 0L121.968 5.39687L118.488 4.53994L117.731 2.62283L116.52 2.32037L116.823 4.43833C107.138 2.11874 97.4035 8.1213 95.1328 17.806C92.8132 27.4908 98.8158 37.226 108.501 39.4959C109.862 39.7984 111.275 40 112.636 40C113.393 40 114.099 39.9496 114.856 39.8488H114.049C104.313 40.4537 95.9401 33.0389 95.3352 23.3037C94.7295 13.5686 102.144 5.19524 111.88 4.58955C112.586 4.53992 113.292 4.53992 114.049 4.58955C114.906 4.58955 115.814 4.63996 116.672 4.79197L116.773 4.84237L115.411 6.55706L116.621 6.8603L118.236 5.5993L121.615 6.60748L119.648 9.2303C112.636 5.80094 104.112 8.7262 100.682 15.7377C97.2515 22.7492 100.178 31.2738 107.189 34.7039C114.2 38.1341 122.675 35.3089 126.104 28.2469C129.232 21.8411 127.114 14.1231 121.161 10.1888L124.591 7.56602L125.65 7.86848C126.71 8.12131 128.273 8.47417 128.425 7.86848C128.677 7.16276 127.114 6.70908 126.104 6.40583Z" fill="#009EFB"/>
</svg>
